<!DOCTYPE svg PUBLIC "-//W3C//DTD SVG 1.1//EN" "http://www.w3.org/Graphics/SVG/1.1/DTD/svg11.dtd">
<!-- Uploaded to: SVG Find, www.svgrepo.com, Transformed by: SVG Find Mixer Tools -->
<svg fill="#ffffff" width="800px" height="800px" version="1.1" viewBox="144 144 512 512" xmlns="http://www.w3.org/2000/svg">
<g id="SVGRepo_bgCarrier" stroke-width="0"/>
<g id="SVGRepo_tracerCarrier" stroke-linecap="round" stroke-linejoin="round"/>
<g id="SVGRepo_iconCarrier"> <g> <path d="m400 266.18c-27.133 0.03125-53.145 10.82-72.328 30.008-19.188 19.184-29.977 45.195-30.008 72.328 0 4.3477 3.5234 7.8711 7.8711 7.8711s7.8711-3.5234 7.8711-7.8711c0-30.938 16.504-59.523 43.297-74.992 26.789-15.469 59.801-15.469 86.59 0 26.793 15.469 43.297 44.055 43.297 74.992 0 4.3477 3.5234 7.8711 7.8711 7.8711 4.3477 0 7.875-3.5234 7.875-7.8711-0.03125-27.133-10.824-53.145-30.008-72.328-19.188-19.188-45.199-29.977-72.328-30.008z"/> <path d="m588.93 439.36h-39.359v-70.848c0-53.438-28.508-102.81-74.785-129.53-46.273-26.719-103.29-26.719-149.57 0s-74.785 76.094-74.785 129.53v70.848h-39.359c-4.3477 0-7.8711 3.5234-7.8711 7.8711v47.23c0.015625 14.609 5.8281 28.617 16.156 38.945 10.332 10.332 24.336 16.145 38.945 16.16 0.125 0 0.23438-0.066406 0.35938-0.074218v0.003906c9.1719 16.066 24.992 27.246 43.199 30.531 1.1172 0.64453 2.3828 1 3.6758 1.0273h188.93c1.293-0.027344 2.5586-0.38281 3.6758-1.0273 18.211-3.2852 34.027-14.465 43.199-30.531 0.125 0.007812 0.23047 0.074218 0.35937 0.074218v-0.003906c14.609-0.015625 28.613-5.8281 38.945-16.16 10.328-10.328 16.141-24.336 16.16-38.945v-47.23c0-2.0859-0.83203-4.0898-2.3086-5.5664-1.4766-1.4766-3.4766-2.3047-5.5664-2.3047zm-369.98 55.102v-39.359h31.488v63.539c0.019531 4.9102 0.61719 9.8008 1.7891 14.566-9.2539-1.4375-17.688-6.1289-23.785-13.234-6.1016-7.1016-9.4648-16.148-9.4922-25.512zm181.05-70.848h86.594v31.488h-173.18v-31.488zm0 141.7-86.59 0.003906v-94.465h173.18v94.465zm102.34-2.5859 0.003907-146.98c0-2.0859-0.83203-4.0898-2.3086-5.5664-1.4727-1.4766-3.4766-2.3047-5.5664-2.3047h-188.93c-4.3477 0-7.8711 3.5234-7.8711 7.8711v146.98c-9.1797-3.1641-17.145-9.1094-22.789-17.012-5.6445-7.8984-8.6836-17.363-8.6992-27.074v-150.13c0-47.812 25.504-91.992 66.91-115.9 41.406-23.902 92.418-23.902 133.82 0 41.406 23.906 66.914 68.086 66.914 115.9v150.13c-0.015625 9.7109-3.0586 19.172-8.6992 27.074-5.6445 7.9023-13.609 13.848-22.789 17.012zm78.723-68.262c-0.023438 9.3633-3.3906 18.41-9.4883 25.512-6.1016 7.1055-14.535 11.797-23.785 13.234 1.168-4.7656 1.7656-9.6562 1.7852-14.566v-63.539h31.488z"/> </g> </g>
</svg>