<!DOCTYPE svg PUBLIC "-//W3C//DTD SVG 1.1//EN" "http://www.w3.org/Graphics/SVG/1.1/DTD/svg11.dtd">
<!-- Uploaded to: SVG Find, www.svgrepo.com, Transformed by: SVG Find Mixer Tools -->
<svg fill="#ffffff" width="800px" height="800px" version="1.1" viewBox="144 144 512 512" xmlns="http://www.w3.org/2000/svg">
<g id="SVGRepo_bgCarrier" stroke-width="0"/>
<g id="SVGRepo_tracerCarrier" stroke-linecap="round" stroke-linejoin="round"/>
<g id="SVGRepo_iconCarrier"> <g> <path d="m612.62 218.22h-425.24c-16.234 0-29.445 13.211-29.445 29.445v274.88c0 16.234 13.211 29.445 29.445 29.445l45.34 0.003906v23.887c0 3.2578 2.6445 5.9023 5.9023 5.9023h62.977c3.2578 0 5.9023-2.6445 5.9023-5.9023v-23.887h184.99v23.887c0 3.2578 2.6445 5.9023 5.9023 5.9023h62.977c3.2578 0 5.9023-2.6445 5.9023-5.9023v-23.887h45.336c16.234 0 29.445-13.211 29.445-29.445l0.007812-274.88c0-16.238-13.211-29.449-29.445-29.449zm-316.92 351.75h-51.168v-17.98h51.168zm259.78 0h-51.168v-17.98h51.168zm74.781-47.426c0 9.7266-7.9141 17.641-17.641 17.641l-425.23-0.003906c-9.7266 0-17.641-7.9141-17.641-17.641l0.003907-274.87c0-9.7266 7.9141-17.641 17.641-17.641h425.23c9.7266 0 17.641 7.9141 17.641 17.641z"/> <path d="m512.12 246.32h-307.32c-10.344 0-18.758 8.4141-18.758 18.758v240.04c0 10.344 8.4141 18.758 18.758 18.758h307.32c10.344 0 18.758-8.4141 18.758-18.758v-240.04c0-10.344-8.4141-18.758-18.758-18.758zm6.9492 258.8c0 3.832-3.1172 6.9492-6.9492 6.9492h-307.32c-3.832 0-6.9492-3.1172-6.9492-6.9492v-240.04c0-3.832 3.1172-6.9492 6.9492-6.9492h307.32c3.832 0 6.9492 3.1172 6.9492 6.9492z"/> <path d="m501.36 324.1c-3.2578 0-5.9023 2.6445-5.9023 5.9023v110.21c0 3.2578 2.6445 5.9023 5.9023 5.9023s5.9023-2.6445 5.9023-5.9023v-110.21c0-3.2578-2.6445-5.9023-5.9023-5.9023z"/> <path d="m580.32 396.74c20.617 0 37.391-16.773 37.391-37.391 0-20.617-16.773-37.391-37.391-37.391-20.617 0-37.391 16.773-37.391 37.391 0 20.617 16.773 37.391 37.391 37.391zm0-62.977c4.6133 0 8.8867 1.3242 12.625 3.4688l-17.07 19.492c-2.1445 2.4531-1.8984 6.1836 0.55469 8.332 1.1211 0.98047 2.5078 1.4609 3.8867 1.4609 1.6445 0 3.2773-0.67969 4.4453-2.0156l16.867-19.262c2.6875 4.0469 4.2734 8.8906 4.2734 14.105 0 14.105-11.477 25.586-25.586 25.586-14.105 0-25.586-11.477-25.586-25.586 0.007812-14.105 11.484-25.582 25.59-25.582z"/> <path d="m580.32 302.28c16.277 0 29.52-13.242 29.52-29.52 0-16.277-13.242-29.52-29.52-29.52-16.277 0-29.52 13.242-29.52 29.52 0 16.277 13.242 29.52 29.52 29.52zm0-47.23c2.1328 0 4.1484 0.4375 6.0469 1.1328l-10.488 11.98c-2.1445 2.4531-1.8984 6.1836 0.55469 8.332 1.1211 0.98047 2.5078 1.4609 3.8867 1.4609 1.6445 0 3.2773-0.67969 4.4453-2.0156l10.703-12.223c1.5938 2.6562 2.5664 5.7266 2.5664 9.043 0 9.7656-7.9453 17.711-17.711 17.711s-17.711-7.9453-17.711-17.711c-0.003906-9.7656 7.9414-17.711 17.707-17.711z"/> <path d="m612.05 447.1h-62.977c-3.2578 0-5.9023 2.6445-5.9023 5.9023s2.6445 5.9023 5.9023 5.9023h62.977c3.2578 0 5.9023-2.6445 5.9023-5.9023 0.003907-3.2578-2.6406-5.9023-5.9023-5.9023z"/> <path d="m612.05 423.48h-62.977c-3.2578 0-5.9023 2.6445-5.9023 5.9023 0 3.2578 2.6445 5.9023 5.9023 5.9023h62.977c3.2578 0 5.9023-2.6445 5.9023-5.9023 0.003907-3.2578-2.6406-5.9023-5.9023-5.9023z"/> <path d="m612.05 471.53h-62.977c-3.2578 0-5.9023 2.6445-5.9023 5.9023v24.43c0 3.2578 2.6445 5.9023 5.9023 5.9023h62.977c3.2578 0 5.9023-2.6445 5.9023-5.9023v-24.43c0.003907-3.2578-2.6406-5.9023-5.9023-5.9023zm-5.9023 24.43h-51.168v-12.621h51.168z"/> </g> </g>
</svg>