<!DOCTYPE svg PUBLIC "-//W3C//DTD SVG 1.1//EN" "http://www.w3.org/Graphics/SVG/1.1/DTD/svg11.dtd">
<!-- Uploaded to: SVG Find, www.svgrepo.com, Transformed by: SVG Find Mixer Tools -->
<svg fill="#ffffff" width="800px" height="800px" version="1.1" viewBox="144 144 512 512" xmlns="http://www.w3.org/2000/svg" stroke="#ffffff">
<g id="SVGRepo_bgCarrier" stroke-width="0"/>
<g id="SVGRepo_tracerCarrier" stroke-linecap="round" stroke-linejoin="round"/>
<g id="SVGRepo_iconCarrier"> <g> <path d="m619.57 388.62c-3.3438-29.211-29.996-50.617-60.785-48.672-5.2461 0.3125-10.551 0.023437-15.793-0.88672-1.3828-0.23828-2.6875-0.71094-4.0391-1.0391 18.852-19.766 38.523-41.512 45.801-51.883 36.227-51.73 46.602-100.66 24.68-116.33-10.113-7.2148-28.523-9.8125-59.004 18.727-2.9883 2.7969-3.1406 7.4844-0.34766 10.473 2.8086 2.9883 7.4883 3.1445 10.477 0.34375 17.547-16.426 32.566-22.961 40.258-17.488 12.512 8.9414 4.1602 49.562-28.195 95.766-13.328 18.988-68.887 76.227-80.516 86.344-24.227-17.348-19.855-14.023-24.613-18.012 6.6602-15.973 45.48-86.895 58.91-106.04 5.1367-7.3438 10.367-14.246 15.547-20.52 2.6055-3.1562 2.1562-7.8242-1-10.43-3.1641-2.6133-7.8281-2.1523-10.434 1-5.418 6.5742-10.891 13.789-16.25 21.441-5.2031 7.4141-15.223 24.293-25.719 42.875-0.023438-4.2734 0.30859-8.5273 1.0977-12.711 5.4688-28.945-14.078-57.582-43.57-63.836-15.043-3.1953-30.547-4.8125-46.074-4.8125-60.738 0-119.45 25.398-161.07 69.688-42.203 44.906-63.332 103.65-59.496 165.41 4.957 79.828 53.41 151 126.46 185.75 3.7031 1.7422 8.1094 0.1875 9.875-3.5078 1.7578-3.6953 0.1875-8.1172-3.5078-9.8711-68.188-32.441-113.41-98.84-118.04-173.29-3.582-57.637 16.129-112.45 55.504-154.34 39.402-41.926 92.77-65.016 150.27-65.016 14.492 0 28.965 1.5078 43.008 4.4844 21.668 4.5977 36.062 25.5 32.082 46.598-1.6484 8.7383-1.8516 17.695-0.59375 26.625 0.48437 3.4727 1.2695 6.8594 2.2031 10.184-10.328 18.93-19.43 36.527-22.996 45.109-37.598-0.88281-41.625 42.992-44.027 51.207-2.7852 9.1758-8.1602 15.461-15.969 18.688-4.7617 1.9688-7.9805 6.375-8.4062 11.496-0.41797 5.0703 1.9961 9.8867 6.3164 12.586 14.066 8.7656 30.992 15.352 47.57 15.363 0.10156 0 0.20312 0.015625 0.30859 0.015625h0.007812c18.965 0 35.523-8 49.23-23.785 10.078-11.625 11.641-32.836 8.6875-47.941 0.30469-0.17969 0.58203-0.33594 0.94531-0.55859 3.4844-2.3242 15.148-13.613 28.922-27.707 4.25 1.543 8.6406 2.7617 13.18 3.5469 6.3945 1.1016 12.863 1.457 19.238 1.0742 22.871-1.4648 42.711 14.203 45.156 35.57 0.89062 7.7812 1.3398 15.734 1.3398 23.633 0 57.504-23.086 110.87-65.016 150.27-41.891 39.375-96.68 59.043-154.35 55.504-8.1602-0.50781-16.375-1.5273-24.418-3.0234-4.0312-0.77344-7.8945 1.9102-8.6406 5.9336-0.74609 4.0234 1.9102 7.8867 5.9336 8.6406 8.625 1.6055 17.445 2.6914 26.207 3.2422 4.7734 0.29688 9.5273 0.44141 14.262 0.44141 56.5 0 109.72-20.996 151.15-59.938 44.285-41.621 69.691-100.33 69.691-161.07-0.015625-8.4648-0.5-16.984-1.4531-25.32zm-215.26 33.273c7.5703-4.375 13.27-10.996 16.832-18.547 1.4531 1.4336 2.625 3.918 3.8555 6.5352 2.0625 4.3828 4.625 9.8438 10.129 13.27 5.5273 3.418 12.719 3.793 19.254 1.0234 3.7617-1.5938 5.5273-5.9453 3.9297-9.7148-1.6055-3.7734-5.9531-5.5234-9.7188-3.9258-11.336 4.7578-7.5391-14.73-23.027-21.797 4.7148-26.996 17.605-34.16 29.5-33.066 8.3828 6 2.9727 1.6914 26.891 21.738 1.1992 3.793 1.9414 9.082 1.9805 14.684-1.2539-0.875-2.6445-1.6367-4.3086-2.1367-6.6562-1.957-14.73 0.48437-21.48 10.375-2.3086 3.3789-1.4336 7.9922 1.9453 10.297 3.3633 2.3125 7.9805 1.4414 10.297-1.9375 0.85156-1.25 3.5938-4.9961 5.0273-4.5273 0.61328 0.18359 2.1133 2.5234 2.918 3.7812 0.6875 1.0781 1.418 2.2188 2.2578 3.3516-0.72656 1.7148-1.4688 3.457-3.0312 5.2773-0.007813 0.007813-0.015625 0.023437-0.023438 0.035156-10.012 11.535-22.699 18.676-38.035 18.676h-0.007812c-14.617 0-28.422-6.2031-38-11.895 0.91406-0.4375 1.8594-0.94531 2.8164-1.4961z"/> <path d="m413.73 278.59c0-11.527-4.4648-22.371-12.574-30.535-2.9023-2.9102-7.582-2.9219-10.484-0.035156-2.9023 2.8828-2.918 7.5742-0.035156 10.477 5.3398 5.3711 8.2773 12.512 8.2773 20.098 0 15.711-12.785 28.496-28.492 28.496s-28.492-12.785-28.492-28.496c0-17.762 16.219-31.367 33.883-27.984 4.0078 0.74609 7.8945-1.8711 8.668-5.8906 0.76562-4.0195-1.875-7.9023-5.8906-8.668-26.781-5.1172-51.48 15.496-51.48 42.543 0 23.883 19.426 43.312 43.312 43.312 23.883-0.003906 43.309-19.434 43.309-43.316z"/> <path d="m315.02 385.33c3.8438 1.4102 8.1055-0.52734 9.5273-4.3672 1.7852-4.8242 2.6992-9.9023 2.6992-15.098 0-23.879-19.426-43.312-43.312-43.312-23.883 0-43.312 19.43-43.312 43.312 0 23.883 19.426 43.312 43.312 43.312 6.3086 0 12.395-1.3242 18.09-3.9375 3.7109-1.707 5.3477-6.1055 3.6328-9.8242-1.707-3.7148-6.0938-5.3398-9.8242-3.6406-3.7344 1.7148-7.7344 2.5859-11.895 2.5859-15.707 0-28.492-12.785-28.492-28.496 0-15.711 12.785-28.492 28.492-28.492 15.707 0 28.492 12.781 28.492 28.492 0 3.4297-0.59375 6.7734-1.7734 9.9375-1.4219 3.8359 0.53125 8.1016 4.3633 9.5273z"/> <path d="m327.35 471.2c-4.0938 0-7.4102 3.3164-7.4102 7.4102 0 15.711-12.785 28.492-28.492 28.492-15.707 0-28.492-12.781-28.492-28.492s12.785-28.496 28.492-28.496c7.3281 0 14.297 2.7656 19.602 7.7891 2.9648 2.8086 7.6484 2.6875 10.477-0.28516 2.8086-2.9727 2.6836-7.6641-0.28906-10.473-8.0742-7.6406-18.652-11.848-29.789-11.848-23.883 0-43.312 19.43-43.312 43.312 0 23.879 19.426 43.312 43.312 43.312 23.883 0 43.312-19.43 43.312-43.312-0.003906-4.0898-3.3164-7.4102-7.4102-7.4102z"/> <path d="m396.95 581.87c4.0938 0 7.4102-3.3164 7.4102-7.4102 0-4.0898-3.3125-7.4102-7.4102-7.4102-15.707 0-28.492-12.785-28.492-28.496 0-15.711 12.785-28.492 28.492-28.492s28.492 12.781 28.492 28.492c0 7.8867-3.1328 15.215-8.8281 20.641-2.9609 2.8203-3.0664 7.5156-0.24609 10.473 2.8203 2.9609 7.5117 3.0703 10.477 0.25 8.6445-8.25 13.414-19.387 13.414-31.363 0-23.879-19.426-43.312-43.312-43.312-23.883 0-43.312 19.43-43.312 43.312 0.007813 23.887 19.434 43.316 43.316 43.316z"/> <path d="m517.25 462.12c6.7734 0 13.32 2.3984 18.449 6.7578 3.1172 2.6445 7.793 2.2734 10.441-0.85156 2.6562-3.1172 2.2734-7.793-0.84766-10.445-7.8008-6.6328-17.762-10.281-28.043-10.281-23.883 0-43.312 19.43-43.312 43.312 0 23.883 19.426 43.312 43.312 43.312 23.883 0 43.316-19.43 43.316-43.312 0-2.8555-0.28125-5.7344-0.84766-8.5547-0.78906-4.0078-4.6875-6.6328-8.7031-5.8242-4.0156 0.79688-6.6211 4.6953-5.8242 8.7109 0.36719 1.8711 0.55859 3.7812 0.55859 5.668 0 15.711-12.785 28.496-28.5 28.496-15.707 0-28.492-12.785-28.492-28.496 0-15.711 12.785-28.492 28.492-28.492z"/> </g> </g>
</svg>