<!DOCTYPE svg PUBLIC "-//W3C//DTD SVG 1.1//EN" "http://www.w3.org/Graphics/SVG/1.1/DTD/svg11.dtd">
<!-- Uploaded to: SVG Find, www.svgrepo.com, Transformed by: SVG Find Mixer Tools -->
<svg fill="#ffffff" width="800px" height="800px" version="1.1" viewBox="144 144 512 512" xmlns="http://www.w3.org/2000/svg">
<g id="SVGRepo_bgCarrier" stroke-width="0"/>
<g id="SVGRepo_tracerCarrier" stroke-linecap="round" stroke-linejoin="round"/>
<g id="SVGRepo_iconCarrier"> <path d="m599.42 326.53h-26.238v-15.742c0-8.7109-7.0312-15.742-15.742-15.742l-314.88-0.003907c-8.7109 0-15.742 7.0312-15.742 15.742l-0.003906 15.746h-26.238c-8.7109 0-15.742 7.0312-15.742 15.742v41.984c-0.003906 8.7109 7.0312 15.746 15.742 15.746h26.238v68.223c0 20.258 16.48 36.734 36.734 36.734h272.9c20.258 0 36.734-16.48 36.734-36.734l0.003906-68.223h26.238c8.7109 0 15.742-7.0312 15.742-15.742v-41.984c0.003907-8.7148-7.0273-15.746-15.742-15.746zm-372.61 62.977h-26.238c-2.9375 0-5.2461-2.3086-5.2461-5.2461v-41.984c-0.003906-2.9414 2.3086-5.25 5.2461-5.25h26.238zm335.88-57.73v136.45c0 14.484-11.754 26.238-26.238 26.238h-272.9c-14.484 0-26.238-11.754-26.238-26.238v-157.44c-0.003906-2.9375 2.3086-5.2461 5.2461-5.2461h314.88c2.9375 0 5.2461 2.3086 5.2461 5.2461zm41.984 52.48c0 2.9375-2.3086 5.2461-5.2461 5.2461h-26.238v-52.48l26.234 0.003907c2.9375 0 5.2461 2.3086 5.2461 5.2461z"/> </g>
</svg>